<svg version="1.1" xmlns="http://www.w3.org/2000/svg" xmlns:xlink="http://www.w3.org/1999/xlink" x="0px" y="0px" width="595.28px" height="595.28px" viewBox="0 0 595.28 595.28" enable-background="new 0 0 595.28 595.28" xml:space="preserve">
		<path fill="#464646" d="M297.64,32.762c35.771,0,70.457,6.999,103.093,20.803c31.538,13.339,59.868,32.442,84.203,56.777
			c24.336,24.336,43.438,52.666,56.778,84.204c13.804,32.636,20.803,67.321,20.803,103.093c0,35.772-6.999,70.458-20.803,103.094
			c-13.34,31.538-32.442,59.868-56.778,84.203c-24.335,24.336-52.665,43.438-84.203,56.778
			c-32.636,13.804-67.321,20.803-103.093,20.803s-70.457-6.999-103.093-20.803c-31.538-13.34-59.868-32.442-84.203-56.778
			c-24.336-24.335-43.438-52.665-56.778-84.203c-13.804-32.637-20.803-67.322-20.803-103.094c0-35.771,6.999-70.457,20.803-103.093
			c13.34-31.538,32.442-59.868,56.778-84.204c24.335-24.335,52.665-43.438,84.203-56.777
			C227.183,39.761,261.868,32.762,297.64,32.762 M297.64,2.762C134.784,2.762,2.763,134.783,2.763,297.639
			c0,162.858,132.021,294.878,294.877,294.878s294.877-132.021,294.877-294.878C592.517,134.783,460.495,2.762,297.64,2.762
			L297.64,2.762z"/>
		<path fill="#464646" d="M203.528,197.565c55.765,0,101.132,45.367,101.132,101.131s-45.367,101.131-101.132,101.131
			c-55.764,0-101.13-45.367-101.13-101.131S147.765,197.565,203.528,197.565 M203.528,167.565
			c-72.421,0-131.13,58.708-131.13,131.131c0,72.423,58.709,131.131,131.13,131.131c72.422,0,131.132-58.708,131.132-131.131
			C334.66,226.274,275.95,167.565,203.528,167.565L203.528,167.565z"/>
</svg>
