<?xml version="1.0" encoding="utf-8"?>
<!-- Generator: Adobe Illustrator 16.0.0, SVG Export Plug-In . SVG Version: 6.00 Build 0)  -->
<!DOCTYPE svg PUBLIC "-//W3C//DTD SVG 1.1//EN" "http://www.w3.org/Graphics/SVG/1.1/DTD/svg11.dtd">
<svg version="1.1" xmlns="http://www.w3.org/2000/svg" xmlns:xlink="http://www.w3.org/1999/xlink" x="0px" y="0px"
width="595.28px" height="595.28px" viewBox="0 0 595.28 595.28" enable-background="new 0 0 595.28 595.28" xml:space="preserve">
	<path fill="#464646" stroke="#464646" stroke-miterlimit="10" d="M297.641,29.999c36.145,0,71.191,7.072,104.168,21.02
		c31.867,13.479,60.492,32.781,85.082,57.371s43.891,53.215,57.369,85.082c13.949,32.977,21.021,68.023,21.021,104.168
		s-7.072,71.191-21.021,104.168c-13.479,31.867-32.779,60.492-57.369,85.082s-53.215,43.891-85.082,57.369
		c-32.977,13.949-68.023,21.021-104.168,21.021s-71.191-7.072-104.168-21.021c-31.867-13.479-60.492-32.779-85.082-57.369
		s-43.893-53.215-57.371-85.082C37.072,368.831,30,333.784,30,297.64s7.072-71.191,21.02-104.168
		c13.479-31.867,32.781-60.492,57.371-85.082s53.215-43.893,85.082-57.371C226.449,37.071,261.496,29.999,297.641,29.999
		 M297.641-0.001C133.258-0.001,0,133.257,0,297.64S133.258,595.28,297.641,595.28S595.281,462.022,595.281,297.64
		S462.023-0.001,297.641-0.001L297.641-0.001z"/>
	<defs>
		<circle id="SVGID_1_" cx="299.127" cy="298.694" r="280.077"/>
	</defs>
	<clipPath id="SVGID_2_">
		<use xlink:href="#SVGID_1_"  overflow="visible"/>
	</clipPath>
	<g clip-path="url(#SVGID_2_)">
		<path fill="#464646" d="M299.127,93.613c113.262,0,205.081,91.818,205.081,205.081c0,113.264-91.819,205.081-205.081,205.081
			c-113.264,0-205.081-91.817-205.081-205.081C94.046,185.431,185.863,93.613,299.127,93.613 M299.127,63.613
			c-31.723,0-62.512,6.22-91.514,18.486c-27.996,11.841-53.135,28.788-74.714,50.367c-21.579,21.58-38.526,46.717-50.368,74.714
			c-12.266,29.001-18.485,59.791-18.485,91.513s6.22,62.513,18.485,91.514c11.842,27.997,28.789,53.134,50.368,74.714
			s46.718,38.525,74.714,50.367c29.002,12.267,59.791,18.486,91.514,18.486s62.512-6.22,91.513-18.486
			c27.997-11.842,53.134-28.787,74.714-50.367s38.525-46.717,50.368-74.714c12.267-29.001,18.486-59.791,18.486-91.514
			s-6.22-62.512-18.486-91.514c-11.843-27.997-28.788-53.134-50.368-74.714c-21.58-21.58-46.717-38.525-74.714-50.367
			C361.639,69.833,330.85,63.613,299.127,63.613L299.127,63.613z"/>
	</g>
	<g clip-path="url(#SVGID_2_)">
		<path fill="#464646" d="M299.127-286.549c46.766,0,90.732,18.212,123.801,51.28s51.28,77.035,51.28,123.801
			c0,46.766-18.212,90.733-51.28,123.801s-77.035,51.28-123.801,51.28s-90.732-18.211-123.801-51.28s-51.28-77.035-51.28-123.801
			c0-46.766,18.212-90.732,51.28-123.801S252.361-286.549,299.127-286.549 M299.127-316.549
			c-113.264,0-205.081,91.818-205.081,205.081c0,113.264,91.817,205.081,205.081,205.081c113.262,0,205.081-91.817,205.081-205.081
			C504.208-224.731,412.389-316.549,299.127-316.549L299.127-316.549z"/>
	</g>
	<g clip-path="url(#SVGID_2_)">
		<path fill="#464646" d="M299.127-356.443c35.535,0,69.99,6.953,102.41,20.665c31.328,13.251,59.471,32.228,83.645,56.402
			c24.174,24.174,43.15,52.316,56.4,83.646c13.713,32.419,20.666,66.875,20.666,102.409c0,35.535-6.953,69.99-20.666,102.41
			c-13.25,31.329-32.227,59.471-56.4,83.645c-24.174,24.174-52.316,43.15-83.645,56.401c-32.42,13.712-66.875,20.665-102.41,20.665
			s-69.99-6.953-102.41-20.665c-31.328-13.251-59.471-32.227-83.645-56.401C88.898,68.56,69.922,40.417,56.671,9.089
			c-13.712-32.42-20.665-66.875-20.665-102.41c0-35.534,6.953-69.99,20.665-102.409c13.251-31.329,32.228-59.472,56.401-83.646
			c24.174-24.174,52.316-43.151,83.645-56.402C229.137-349.49,263.592-356.443,299.127-356.443 M299.127-386.443
			C137.24-386.443,6.006-255.208,6.006-93.321C6.006,68.566,137.24,199.8,299.127,199.8S592.248,68.566,592.248-93.321
			C592.248-255.208,461.014-386.443,299.127-386.443L299.127-386.443z"/>
	</g>
	<g clip-path="url(#SVGID_2_)">
		<path fill="#464646" d="M299.127,427.401c35.535,0,69.99,6.952,102.41,20.664c31.328,13.252,59.471,32.229,83.645,56.402
			s43.15,52.316,56.4,83.645c13.713,32.42,20.666,66.875,20.666,102.41s-6.953,69.99-20.666,102.41
			c-13.25,31.328-32.227,59.471-56.4,83.645s-52.316,43.15-83.645,56.402c-32.42,13.711-66.875,20.664-102.41,20.664
			s-69.99-6.953-102.41-20.664c-31.328-13.252-59.471-32.229-83.645-56.402s-43.15-52.316-56.401-83.645
			c-13.712-32.42-20.665-66.875-20.665-102.41s6.953-69.99,20.665-102.41c13.251-31.328,32.228-59.471,56.401-83.645
			s52.316-43.15,83.645-56.402C229.137,434.354,263.592,427.401,299.127,427.401 M299.127,397.401
			c-161.887,0-293.121,131.234-293.121,293.121S137.24,983.644,299.127,983.644s293.121-131.234,293.121-293.121
			S461.014,397.401,299.127,397.401L299.127,397.401z"/>
	</g>
	<g clip-path="url(#SVGID_2_)">
		<path fill="#464646" d="M299.127,533.775c46.766,0,90.732,18.212,123.801,51.28s51.28,77.035,51.28,123.801
			s-18.212,90.732-51.28,123.801s-77.035,51.28-123.801,51.28s-90.732-18.212-123.801-51.28s-51.28-77.035-51.28-123.801
			s18.212-90.732,51.28-123.801S252.361,533.775,299.127,533.775 M299.127,503.775c-113.264,0-205.081,91.818-205.081,205.081
			s91.817,205.081,205.081,205.081c113.262,0,205.081-91.818,205.081-205.081S412.389,503.775,299.127,503.775L299.127,503.775z"/>
	</g>
	<path fill="#464646" d="M297.64,199.987c54.515,0,98.707,44.193,98.707,98.707c0,54.515-44.192,98.707-98.707,98.707
		s-98.708-44.192-98.708-98.707C198.932,244.18,243.125,199.987,297.64,199.987 M297.64,169.987
		c-34.379,0-66.7,13.388-91.01,37.698c-24.31,24.309-37.698,56.63-37.698,91.009s13.389,66.7,37.698,91.01
		s56.631,37.697,91.01,37.697s66.7-13.388,91.009-37.697c24.311-24.31,37.698-56.631,37.698-91.01s-13.388-66.7-37.698-91.009
		C364.34,183.375,332.019,169.987,297.64,169.987L297.64,169.987z"/>
</svg>
