<svg version="1.1" xmlns="http://www.w3.org/2000/svg" xmlns:xlink="http://www.w3.org/1999/xlink" x="0px" y="0px"
	 width="595.28px" height="595.28px" viewBox="0 0 595.28 595.28" enable-background="new 0 0 595.28 595.28" xml:space="preserve">

	
		<path fill="none" stroke="#464646" stroke-width="30" stroke-linecap="round" stroke-linejoin="round" stroke-miterlimit="10" d="
		M297.801,135.594"/>
	
		<path fill="none" stroke="#464646" stroke-width="30" stroke-linecap="round" stroke-linejoin="round" stroke-miterlimit="10" d="
		M297.801,459.706"/>
	
		<path fill="none" stroke="#464646" stroke-width="30" stroke-linecap="round" stroke-linejoin="round" stroke-miterlimit="10" d="
		M297.801,458.637"/>
	
		<path fill="none" stroke="#464646" stroke-width="30" stroke-linecap="round" stroke-linejoin="round" stroke-miterlimit="10" d="
		M297.801,134.523"/>

		<path fill="#464646" d="M297.641,31.092c35.996,0,70.9,7.043,103.742,20.935c31.736,13.423,60.246,32.646,84.734,57.136
			c24.489,24.489,43.712,52.998,57.136,84.735c13.892,32.842,20.935,67.746,20.935,103.743c0,35.997-7.043,70.901-20.935,103.743
			c-13.424,31.737-32.646,60.246-57.136,84.735c-24.488,24.489-52.998,43.712-84.734,57.136
			c-32.842,13.892-67.746,20.935-103.742,20.935c-35.997,0-70.901-7.043-103.743-20.935c-31.736-13.424-60.245-32.646-84.734-57.136
			s-43.712-52.998-57.136-84.735c-13.892-32.842-20.935-67.746-20.935-103.743c0-35.997,7.043-70.901,20.935-103.743
			c13.424-31.737,32.646-60.246,57.136-84.735c24.489-24.489,52.998-43.712,84.734-57.136
			C226.739,38.135,261.644,31.092,297.641,31.092 M297.641,1.092C133.862,1.092,1.093,133.861,1.093,297.64
			c0,163.779,132.77,296.549,296.548,296.549c163.777,0,296.547-132.77,296.547-296.549
			C594.188,133.861,461.418,1.092,297.641,1.092L297.641,1.092z"/>

	
		<line fill="none" stroke="#464646" stroke-width="30" stroke-linecap="round" stroke-linejoin="round" stroke-miterlimit="10" x1="299.012" y1="28.105" x2="299.012" y2="134.523"/>
	
		<circle fill="none" stroke="#464646" stroke-width="30" stroke-linecap="round" stroke-linejoin="round" stroke-miterlimit="10" cx="299.012" cy="296.58" r="162.056"/>
	
		<line fill="none" stroke="#464646" stroke-width="30" stroke-linecap="round" stroke-linejoin="round" stroke-miterlimit="10" x1="238.007" y1="446.714" x2="360.017" y2="146.444"/>
	
		<line fill="none" stroke="#464646" stroke-width="30" stroke-linecap="round" stroke-linejoin="round" stroke-miterlimit="10" x1="299.012" y1="469.082" x2="299.012" y2="575.501"/>

</svg>