<?xml version="1.0" encoding="utf-8"?>
<!-- Generator: Adobe Illustrator 16.0.0, SVG Export Plug-In . SVG Version: 6.00 Build 0)  -->
<!DOCTYPE svg PUBLIC "-//W3C//DTD SVG 1.1//EN" "http://www.w3.org/Graphics/SVG/1.1/DTD/svg11.dtd">
<svg version="1.1" xmlns="http://www.w3.org/2000/svg" xmlns:xlink="http://www.w3.org/1999/xlink" x="0px" y="0px"
	 width="595.28px" height="595.28px" viewBox="0 0 595.28 595.28" enable-background="new 0 0 595.28 595.28" xml:space="preserve">
<g id="Layer_1">
</g>
<g id="Layer_2">
</g>
<g id="Layer_3">
</g>
<g id="Layer_4">
</g>
<g id="Layer_5">
</g>
<g id="Layer_6">
</g>
<g id="biasi">
</g>
<g id="gerstner">
	<g>
		<path fill="#464646" d="M297.641,30c36.144,0,71.191,7.072,104.168,21.02c31.866,13.479,60.493,32.781,85.082,57.37
			c24.589,24.589,43.892,53.215,57.37,85.082c13.947,32.977,21.02,68.024,21.02,104.168c0,36.145-7.072,71.192-21.02,104.168
			c-13.479,31.867-32.781,60.492-57.37,85.082c-24.589,24.589-53.216,43.891-85.082,57.369
			c-32.977,13.948-68.024,21.021-104.168,21.021c-36.145,0-71.192-7.072-104.169-21.021c-31.867-13.479-60.492-32.78-85.082-57.369
			c-24.589-24.59-43.891-53.215-57.369-85.082C37.072,368.832,30,333.785,30,297.64c0-36.145,7.072-71.192,21.021-104.168
			c13.479-31.867,32.78-60.493,57.369-85.082c24.59-24.589,53.215-43.892,85.082-57.37C226.448,37.072,261.496,30,297.641,30
			 M297.641,0C133.258,0,0,133.258,0,297.64s133.258,297.64,297.641,297.64c164.382,0,297.64-133.258,297.64-297.64
			S462.022,0,297.641,0L297.641,0z"/>
	</g>
	
		<line fill="none" stroke="#464646" stroke-width="30" stroke-linejoin="round" stroke-miterlimit="10" x1="297.641" y1="9" x2="297.641" y2="577"/>
	
		<line fill="none" stroke="#464646" stroke-width="30" stroke-linejoin="round" stroke-miterlimit="10" x1="352.038" y1="9" x2="352.038" y2="577"/>
	
		<line fill="none" stroke="#464646" stroke-width="30" stroke-linejoin="round" stroke-miterlimit="10" x1="464.038" y1="68.564" x2="464.038" y2="526.716"/>
</g>
<g id="Layer_9">
</g>
</svg>
