<svg version="1.1" xmlns="http://www.w3.org/2000/svg" xmlns:xlink="http://www.w3.org/1999/xlink" x="0px" y="0px"
	 width="595.28px" height="595.28px" viewBox="0 0 595.28 595.28" enable-background="new 0 0 595.28 595.28" xml:space="preserve">
			<path fill="#464646" d="M470.017,67.393v30c7.452,0,14.46,2.902,19.729,8.172c5.27,5.27,8.172,12.277,8.172,19.729
				s-2.902,14.459-8.172,19.729l-94.502,94.502c-5.271,5.27-12.276,8.172-19.729,8.172c-7.452,0-14.459-2.902-19.729-8.172
				c-10.879-10.879-10.879-28.58,0-39.458l94.503-94.503c5.269-5.269,12.275-8.171,19.728-8.171L470.017,67.393 M470.016,67.393
				c-14.818,0-29.637,5.653-40.941,16.958l-94.502,94.502c-22.612,22.612-22.612,59.273,0,81.885
				c11.307,11.306,26.124,16.959,40.942,16.959s29.637-5.653,40.942-16.959l94.502-94.502c22.612-22.612,22.612-59.273,0-81.885
				C499.652,73.046,484.834,67.393,470.016,67.393L470.016,67.393z"/>

			<path fill="#464646" d="M127.948,100.077c7.453,0,14.46,2.902,19.729,8.172l91.817,91.818
				c10.879,10.879,10.879,28.581,0.001,39.458c-5.271,5.271-12.278,8.173-19.73,8.173s-14.459-2.902-19.729-8.172l-91.818-91.818
				c-10.878-10.879-10.878-28.581,0-39.459C113.489,102.979,120.496,100.077,127.948,100.077 M127.948,70.077
				c-14.818,0-29.636,5.653-40.942,16.959c-22.611,22.612-22.611,59.273,0,81.885l91.818,91.818
				c11.307,11.307,26.122,16.959,40.942,16.959c14.816,0,29.638-5.655,40.943-16.959c22.611-22.612,22.611-59.273,0-81.885
				l-91.818-91.818C157.585,75.729,142.767,70.077,127.948,70.077L127.948,70.077z"/>


			<path fill="#464646" d="M375.514,346.596c7.452,0,14.459,2.902,19.729,8.172l90.367,90.368c5.27,5.27,8.171,12.275,8.171,19.728
				c0,7.453-2.902,14.46-8.171,19.729c-5.271,5.27-12.278,8.173-19.731,8.173c-7.452,0-14.459-2.902-19.729-8.172l-90.366-90.367
				c-5.27-5.271-8.172-12.277-8.172-19.729c0-7.453,2.902-14.459,8.172-19.729C361.055,349.498,368.062,346.596,375.514,346.596
				 M375.514,316.596c-14.818,0-29.636,5.652-40.942,16.959c-22.612,22.611-22.612,59.272,0,81.885l90.366,90.367
				c11.305,11.306,26.123,16.959,40.941,16.959s29.637-5.653,40.943-16.959c22.612-22.613,22.612-59.274,0-81.885l-90.366-90.367
				C405.15,322.249,390.332,316.596,375.514,316.596L375.514,316.596z"/>


			<path fill="#464646" d="M219.765,346.596c7.453,0,14.459,2.902,19.729,8.172c10.878,10.879,10.878,28.58,0,39.459l-91.397,91.397
				c-5.27,5.271-12.277,8.172-19.73,8.172c-7.453,0-14.459-2.901-19.729-8.171c-5.271-5.271-8.173-12.277-8.173-19.73
				c0-7.452,2.902-14.458,8.172-19.729l91.397-91.397C205.306,349.498,212.313,346.596,219.765,346.596 M219.765,316.596
				c-14.82,0-29.636,5.652-40.943,16.959l-91.397,91.398c-22.612,22.61-22.612,59.271,0,81.885
				c11.306,11.306,26.124,16.959,40.942,16.959s29.637-5.653,40.943-16.959l91.397-91.398c22.612-22.612,22.612-59.273,0-81.885
				C249.403,322.25,234.582,316.596,219.765,316.596L219.765,316.596z"/>
</svg>
