<svg version="1.1" xmlns="http://www.w3.org/2000/svg" xmlns:xlink="http://www.w3.org/1999/xlink" x="0px" y="0px"
	 width="595.28px" height="595.28px" viewBox="0 0 595.28 595.28" enable-background="new 0 0 595.28 595.28" xml:space="preserve">
		<path fill="#464646" d="M297.641,42.578l55.898,55.897c11.075,11.074,29.748,18.808,45.408,18.808h79.051v79.051
			c0,15.661,7.734,34.333,18.809,45.409l55.896,55.897l-55.898,55.9c-11.073,11.074-18.807,29.746-18.807,45.406v79.05h-79.051
			c-15.66,0-34.332,7.733-45.408,18.809l-55.898,55.897l-55.896-55.896c-11.074-11.075-29.747-18.81-45.408-18.81h-79.053v-79.052
			c0-15.661-7.734-34.333-18.809-45.407L42.578,297.64l55.898-55.898c11.072-11.075,18.807-29.747,18.807-45.408v-79.051h79.053
			c15.66,0,34.333-7.734,45.408-18.809L297.641,42.578 M297.641,6.039c-3.633,0-7.266,1.378-10.021,4.134l-67.088,67.088
			c-5.513,5.512-16.4,10.022-24.195,10.022h-94.879c-7.796,0-14.174,6.378-14.174,14.173v94.877c0,7.795-4.51,18.683-10.021,24.195
			l-67.088,67.088c-5.513,5.512-5.513,14.532,0,20.044l67.088,67.088c5.512,5.512,10.021,16.399,10.021,24.194v94.879
			c0,7.795,6.378,14.173,14.174,14.173h94.879c7.795,0,18.683,4.51,24.195,10.022l67.088,67.088
			c2.756,2.757,6.389,4.135,10.021,4.135s7.266-1.378,10.021-4.134l67.09-67.09c5.513-5.512,16.4-10.021,24.195-10.021h94.877
			c7.796,0,14.174-6.378,14.174-14.173v-94.877c0-7.795,4.51-18.683,10.021-24.195l67.088-67.089c5.512-5.512,5.512-14.532,0-20.044
			L518.02,220.53c-5.512-5.512-10.021-16.4-10.021-24.195v-94.877c0-7.795-6.378-14.173-14.174-14.173h-94.877
			c-7.795,0-18.683-4.51-24.195-10.022l-67.09-67.088C304.906,7.417,301.273,6.039,297.641,6.039L297.641,6.039z"/>
		<path fill="#464646" d="M346.484,174.205c1.074,0.218,2.98,1.008,3.896,1.613l69.081,69.08c0.605,0.914,1.396,2.821,1.614,3.896
			v97.69c-0.219,1.074-1.008,2.98-1.613,3.895l-69.083,69.083c-0.914,0.605-2.82,1.395-3.895,1.613h-97.689
			c-1.074-0.219-2.98-1.008-3.895-1.613l-69.08-69.079c-0.606-0.915-1.396-2.823-1.615-3.898v-97.69
			c0.219-1.075,1.009-2.982,1.614-3.897l69.08-69.079c0.914-0.605,2.821-1.395,3.896-1.613H346.484 M347.02,144.205h-98.76
			c-7.796,0-18.684,4.51-24.195,10.022l-69.838,69.836c-5.512,5.512-10.021,16.4-10.021,24.195v98.762
			c0,7.795,4.51,18.683,10.021,24.195l69.838,69.837c5.512,5.513,16.399,10.022,24.195,10.022h98.76
			c7.796,0,18.684-4.51,24.195-10.022l69.838-69.838c5.513-5.512,10.022-16.399,10.022-24.194v-98.762
			c0-7.795-4.51-18.683-10.022-24.195l-69.838-69.836C365.703,148.715,354.815,144.205,347.02,144.205L347.02,144.205z"/>

</svg>
